<svg xmlns="http://www.w3.org/2000/svg" width="27" height="34" viewBox="0 0 27 34">
  <path fill="#13B56F" d="M13.4536747,0 C12.1461149,0 11.0751833,0.913023369 10.7540887,2.12426443 L8.6076965,2.12426443 L8.49705773,2.12426443 L8.43067447,2.12426443 L2.12426443,2.12426443 C0.959480819,2.12426443 0,3.08374525 0,4.24852886 L0,31.8639665 C0,33.0287502 0.959480819,33.9882309 2.12426443,33.9882309 L24.783085,33.9882309 C25.9478688,33.9882309 26.9073495,33.0287502 26.9073495,31.8639665 L26.9073495,4.24852886 C26.9073495,3.08374525 25.9478688,2.12426443 24.783085,2.12426443 L18.5209305,2.12426443 L18.4545473,2.12426443 C18.439799,2.12380337 18.42504,2.12380337 18.4102917,2.12426443 L18.3439085,2.12426443 L16.1532608,2.12426443 C15.8321662,0.913023369 14.7612346,0 13.4536747,0 Z M13.4536747,1.41617629 C14.2443727,1.41617629 14.869851,2.04165455 14.869851,2.83235258 C14.8698901,3.22340266 15.1868891,3.54040162 15.5779392,3.54044072 L17.7022036,3.54044072 L17.7022036,4.95661701 L9.20514587,4.95661701 L9.20514587,3.54044072 L11.3294103,3.54044072 C11.7204604,3.54040162 12.0374593,3.22340266 12.0374984,2.83235258 C12.0374984,2.04165455 12.6629768,1.41617629 13.4536747,1.41617629 Z M2.12426443,3.54044072 L7.78896958,3.54044072 L7.78896958,5.66470515 C7.78900868,6.05575524 8.10600764,6.3727542 8.49705773,6.3727933 L18.4102917,6.3727933 C18.8013418,6.3727542 19.1183408,6.05575524 19.1183799,5.66470515 L19.1183799,3.54044072 L24.783085,3.54044072 C25.1831761,3.54044072 25.4911732,3.84843768 25.4911732,4.24852886 L25.4911732,31.8639665 C25.4911732,32.2640575 25.1831761,32.5720546 24.783085,32.5720546 L2.12426443,32.5720546 C1.72417325,32.5720546 1.41617629,32.2640575 1.41617629,31.8639665 L1.41617629,4.24852886 C1.41617629,3.84843768 1.72417325,3.54044072 2.12426443,3.54044072 Z M21.2426443,11.9932429 C21.2052349,11.9976645 21.1682379,12.0050639 21.1320055,12.0153707 C21.1170005,12.0222288 21.1022396,12.0296093 21.08775,12.0374984 C20.9050933,12.0782285 20.7459849,12.1896044 20.645195,12.347287 L18.299653,15.8656 L16.7949657,14.3609127 C16.6470358,14.2031809 16.4351442,14.1216842 16.219644,14.1396351 C16.1896954,14.1451009 16.1601304,14.1524921 16.131133,14.1617629 C15.8669387,14.2096934 15.6525758,14.4029189 15.5775739,14.6607381 C15.5025719,14.9185572 15.5798331,15.1966188 15.777089,15.3787894 L17.8128424,17.4145428 C17.826944,17.4299308 17.8417098,17.4446967 17.8570979,17.4587983 L17.9013534,17.5030538 C17.9085677,17.5105896 17.9159454,17.5179673 17.9234811,17.5251816 C17.9306958,17.532717 17.9380735,17.5400946 17.9456089,17.5473093 C17.9528232,17.5548451 17.9602009,17.5622228 17.9677367,17.5694371 C17.9961901,17.5862021 18.0257636,17.6009889 18.0562477,17.6136926 C18.0707409,17.6215747 18.0855015,17.628955 18.1005032,17.6358203 C18.1149971,17.6437013 18.1297576,17.6510816 18.1447587,17.6579481 C18.1521342,17.6580617 18.159511,17.6580617 18.1668864,17.6579481 C18.1813803,17.665829 18.1961409,17.6732093 18.211142,17.6800758 C18.2185174,17.6801895 18.2258942,17.6801895 18.2332697,17.6800758 C18.2477636,17.6879568 18.2625241,17.6953371 18.2775252,17.7022036 C18.2849007,17.7023173 18.2922775,17.7023173 18.299653,17.7022036 C18.3144013,17.7026572 18.3291601,17.7026572 18.3439085,17.7022036 C18.351284,17.7023173 18.3586608,17.7023173 18.3660362,17.7022036 C18.4101972,17.7062941 18.4546418,17.7062941 18.4988028,17.7022036 C18.5061782,17.7023173 18.513555,17.7023173 18.5209305,17.7022036 C18.5740553,17.6932945 18.6260121,17.6784497 18.6758248,17.6579481 C18.6908265,17.6510828 18.7055871,17.6437025 18.7200803,17.6358203 C18.7425537,17.6295251 18.7647077,17.6221404 18.7864636,17.6136926 C18.8018516,17.599591 18.8166175,17.5848251 18.8307191,17.5694371 C18.8457202,17.5625705 18.8604807,17.5551903 18.8749746,17.5473093 C18.8985267,17.5266533 18.9207019,17.5044782 18.9413579,17.4809261 C18.9573257,17.4596336 18.9721002,17.4374718 18.9856134,17.4145428 C18.9931492,17.4073285 19.0005268,17.3999508 19.0077411,17.392415 L19.0298689,17.3702873 C19.0383167,17.3485314 19.0457013,17.3263774 19.0519966,17.303904 L21.8400937,13.1438862 C22.0161776,12.9250669 22.0462987,12.622863 21.91687,12.3735929 C21.7874413,12.1243227 21.5229269,11.9751026 21.2426443,11.9932429 L21.2426443,11.9932429 Z M5.46555536,14.1617629 C5.07448909,14.2167566 4.80204844,14.5783596 4.85704214,14.9694259 C4.91203583,15.3604922 5.27363888,15.6329328 5.66470515,15.5779392 L12.7455866,15.5779392 C13.0009486,15.5815506 13.2384736,15.4473852 13.3672085,15.2268175 C13.4959434,15.0062498 13.4959434,14.7334523 13.3672085,14.5128846 C13.2384736,14.2923168 13.0009486,14.1581514 12.7455866,14.1617629 L5.66470515,14.1617629 C5.64258956,14.1607252 5.62043748,14.1607252 5.59832189,14.1617629 C5.57620628,14.1607262 5.55405424,14.1607262 5.53193863,14.1617629 C5.50982293,14.1607296 5.48767105,14.1607296 5.46555536,14.1617629 Z M21.2426443,21.1983888 C21.2052349,21.2028103 21.1682379,21.2102097 21.1320055,21.2205166 C21.1170005,21.2273747 21.1022396,21.2347551 21.08775,21.2426443 C20.9050933,21.2833744 20.7459849,21.3947502 20.645195,21.5524329 L18.299653,25.0707459 L16.7949657,23.5660585 C16.6470358,23.4083268 16.4351442,23.32683 16.219644,23.344781 C16.1896954,23.3502467 16.1601304,23.357638 16.131133,23.3669088 C15.8669387,23.4148393 15.6525758,23.6080648 15.5775739,23.8658839 C15.5025719,24.1237031 15.5798331,24.4017647 15.777089,24.5839353 L17.8128424,26.6196887 C17.826944,26.6350767 17.8417098,26.6498426 17.8570979,26.6639442 L17.9013534,26.7081997 C17.9085677,26.7157355 17.9159454,26.7231131 17.9234811,26.7303274 C17.9306958,26.7378628 17.9380735,26.7452405 17.9456089,26.7524552 C17.9528232,26.759991 17.9602009,26.7673687 17.9677367,26.7745829 C17.9961901,26.791348 18.0257636,26.8061347 18.0562477,26.8188385 C18.0707409,26.8267206 18.0855015,26.8341009 18.1005032,26.8409662 C18.1149971,26.8488472 18.1297576,26.8562274 18.1447587,26.863094 C18.1521342,26.8632076 18.159511,26.8632076 18.1668864,26.863094 C18.1813803,26.8709749 18.1961409,26.8783552 18.211142,26.8852217 C18.2185174,26.8853354 18.2258942,26.8853354 18.2332697,26.8852217 C18.2477636,26.8931027 18.2625241,26.9004829 18.2775252,26.9073495 C18.2849007,26.9074631 18.2922775,26.9074631 18.299653,26.9073495 C18.3144013,26.9078031 18.3291601,26.9078031 18.3439085,26.9073495 C18.351284,26.9074631 18.3586608,26.9074631 18.3660362,26.9073495 C18.4101972,26.9114399 18.4546418,26.9114399 18.4988028,26.9073495 C18.5061782,26.9074631 18.513555,26.9074631 18.5209305,26.9073495 C18.5740553,26.8984403 18.6260121,26.8835956 18.6758248,26.863094 C18.6908265,26.8562286 18.7055871,26.8488484 18.7200803,26.8409662 C18.7425537,26.8346709 18.7647077,26.8272863 18.7864636,26.8188385 C18.8018516,26.8047368 18.8166175,26.789971 18.8307191,26.7745829 C18.8457202,26.7677164 18.8604807,26.7603361 18.8749746,26.7524552 C18.8985267,26.7317992 18.9207019,26.7096241 18.9413579,26.6860719 C18.9573257,26.6647794 18.9721002,26.6426176 18.9856134,26.6196887 C18.9931492,26.6124744 19.0005268,26.6050967 19.0077411,26.5975609 L19.0298689,26.5754332 C19.0383167,26.5536772 19.0457013,26.5315233 19.0519966,26.5090499 L21.8400937,22.349032 C22.0161776,22.1302128 22.0462987,21.8280089 21.91687,21.5787388 C21.7874413,21.3294686 21.5229269,21.1802485 21.2426443,21.1983888 L21.2426443,21.1983888 Z M5.46555536,23.3669088 C5.07448908,23.4219025 4.80204842,23.7835055 4.85704211,24.1745718 C4.91203581,24.5656381 5.27363887,24.8380787 5.66470515,24.783085 L12.7455866,24.783085 C13.0009486,24.7866965 13.2384736,24.6525311 13.3672085,24.4319634 C13.4959434,24.2113956 13.4959434,23.9385982 13.3672085,23.7180304 C13.2384736,23.4974627 13.0009486,23.3632973 12.7455866,23.3669088 L5.66470515,23.3669088 C5.64258956,23.365871 5.62043748,23.365871 5.59832189,23.3669088 C5.57620628,23.3658721 5.55405424,23.3658721 5.53193863,23.3669088 C5.50982293,23.3658755 5.48767105,23.3658755 5.46555536,23.3669088 Z"/>
</svg>
