<svg xmlns="http://www.w3.org/2000/svg" width="33" height="33" viewBox="0 0 33 33">
  <path
    fill="#13B56F"
    d="M0,0 L0,32.6350881 L25.5405037,32.6350881 L25.5405037,23.7668576 L24.1215868,24.9017137 L24.1215868,31.2161712 L1.41891687,31.2161712 L1.41891687,1.41891687 L24.1215868,1.41891687 L24.1215868,8.51350123 L25.5405037,9.52780545 L25.5405037,0 L0,0 Z M7.38418742,4.25675062 C5.83756803,4.28512895 5.70809187,5.48437976 6.0096117,6.64008755 C6.0096117,6.64008755 5.84728974,6.80236482 5.85580324,7.03222935 C5.87141133,7.46641791 6.16064902,7.60450761 6.16064902,7.60450761 C6.21598678,8.00818946 6.57196819,8.36989124 6.69967071,8.43728979 C6.69967071,8.6948232 6.72521121,8.89142123 6.69967071,9.17307623 C6.39389412,9.99533785 4.35181805,9.76427646 4.25675062,11.351335 L10.562894,11.351335 C10.4678265,9.76427646 8.42507362,9.99604801 8.11858758,9.17307623 C8.09304708,8.89142052 8.11858758,8.6948232 8.11858758,8.43728979 C8.29453327,8.35286424 8.58419238,8.01457459 8.64236797,7.60450761 C8.64236797,7.60450761 8.94582747,7.41181232 8.94582747,7.09042764 C8.94582747,6.86623878 8.87172241,6.6997154 8.81141844,6.63870198 C8.97459388,6.14775674 9.25441989,4.64750699 8.17817145,4.64750699 C8.06252972,4.44389241 7.77084227,4.25675062 7.38418742,4.25675062 Z M14.9013983,5.67428185 C14.6455427,5.67066432 14.407559,5.80508958 14.2785755,6.02608378 C14.149592,6.24707798 14.149592,6.52040265 14.2785755,6.74139685 C14.407559,6.96239106 14.6455427,7.09681632 14.9013983,7.09319879 L20.5770658,7.09319879 C20.8329214,7.09681632 21.0709051,6.96239106 21.1998886,6.74139685 C21.328872,6.52040265 21.328872,6.24707798 21.1998886,6.02608378 C21.0709051,5.80508958 20.8329214,5.67066432 20.5770658,5.67428185 L14.9013983,5.67428185 Z M14.9013983,9.2215741 C14.6455421,9.21795565 14.4075575,9.35238071 14.2785735,9.57337527 C14.1495894,9.79436984 14.1495894,10.0676952 14.2785735,10.2886898 C14.4075575,10.5096844 14.6455421,10.6441094 14.9013983,10.640491 L20.5770658,10.640491 C20.832922,10.6441094 21.0709066,10.5096844 21.1998906,10.2886898 C21.3288747,10.0676952 21.3288747,9.79436984 21.1998906,9.57337527 C21.0709066,9.35238071 20.832922,9.21795565 20.5770658,9.2215741 L14.9013983,9.2215741 Z M24.1215868,9.83680723 L24.1215868,14.1891687 L19.1553778,14.1891687 L19.1553778,19.1553778 L24.1215868,19.1553778 L24.1215868,23.5077393 L32.3247,16.6722732 L24.1215868,9.83680723 Z M25.5405037,12.8658627 L30.1076424,16.6722732 L25.5405037,20.4786838 L25.5405037,17.7364609 L20.5742946,17.7364609 L20.5742946,15.6080856 L25.5405037,15.6080856 L25.5405037,12.8658627 Z M4.9689802,16.3161585 C4.713124,16.31254 4.4751394,16.4469651 4.34615535,16.6679596 C4.21717129,16.8889542 4.21717129,17.1622796 4.34615535,17.3832742 C4.4751394,17.6042687 4.713124,17.7386938 4.9689802,17.7350753 L14.9013983,17.7350753 C15.1572545,17.7386938 15.3952391,17.6042687 15.5242232,17.3832742 C15.6532072,17.1622796 15.6532072,16.8889542 15.5242232,16.6679596 C15.3952391,16.4469651 15.1572545,16.31254 14.9013983,16.3161585 L4.9689802,16.3161585 Z M4.9689802,20.5729091 C4.713124,20.5692906 4.4751394,20.7037157 4.34615535,20.9247103 C4.21717129,21.1457048 4.21717129,21.4190302 4.34615535,21.6400248 C4.4751394,21.8610193 4.713124,21.9954444 4.9689802,21.9918259 L12.773023,21.9918259 C13.0288792,21.9954444 13.2668638,21.8610193 13.3958478,21.6400248 C13.5248319,21.4190302 13.5248319,21.1457048 13.3958478,20.9247103 C13.2668638,20.7037157 13.0288792,20.5692906 12.773023,20.5729091 L4.9689802,20.5729091 Z M18.4486905,20.5729091 C18.1928343,20.5692906 17.9548497,20.7037157 17.8258656,20.9247103 C17.6968816,21.1457048 17.6968816,21.4190302 17.8258656,21.6400248 C17.9548497,21.8610193 18.1928343,21.9954444 18.4486905,21.9918259 L20.5770658,21.9918259 C20.832922,21.9954444 21.0709066,21.8610193 21.1998906,21.6400248 C21.3288747,21.4190302 21.3288747,21.1457048 21.1998906,20.9247103 C21.0709066,20.7037157 20.832922,20.5692906 20.5770658,20.5729091 L18.4486905,20.5729091 Z M4.9689802,24.8296597 C4.713124,24.8260412 4.4751394,24.9604663 4.34615535,25.1814609 C4.21717129,25.4024554 4.21717129,25.6757808 4.34615535,25.8967754 C4.4751394,26.11777 4.713124,26.252195 4.9689802,26.2485766 L14.9013983,26.2485766 C15.1572545,26.252195 15.3952391,26.11777 15.5242232,25.8967754 C15.6532072,25.6757808 15.6532072,25.4024554 15.5242232,25.1814609 C15.3952391,24.9604663 15.1572545,24.8260412 14.9013983,24.8296597 L4.9689802,24.8296597 Z M18.4486905,24.8296597 C18.1928343,24.8260412 17.9548497,24.9604663 17.8258656,25.1814609 C17.6968816,25.4024554 17.6968816,25.6757808 17.8258656,25.8967754 C17.9548497,26.11777 18.1928343,26.252195 18.4486905,26.2485766 L20.5770658,26.2485766 C20.832922,26.252195 21.0709066,26.11777 21.1998906,25.8967754 C21.3288747,25.6757808 21.3288747,25.4024554 21.1998906,25.1814609 C21.0709066,24.9604663 20.832922,24.8260412 20.5770658,24.8296597 L18.4486905,24.8296597 Z"
  />
</svg>
